<svg xmlns="http://www.w3.org/2000/svg" width="1200" height="630" viewBox="0 0 1200 630">
  <defs>
    <!-- Background -->
    <radialGradient id="bg" cx="32%" cy="18%" r="95%">
      <stop offset="0%" stop-color="#2b2b2b"/>
      <stop offset="55%" stop-color="#0b0b0b"/>
      <stop offset="100%" stop-color="#000000"/>
    </radialGradient>

    <!-- Gold accent -->
    <linearGradient id="gold" x1="0" y1="0" x2="1" y2="1">
      <stop offset="0%" stop-color="#8F6B1E"/>
      <stop offset="35%" stop-color="#C8A24A"/>
      <stop offset="70%" stop-color="#EAD07B"/>
      <stop offset="100%" stop-color="#A77D27"/>
    </linearGradient>

    <!-- Subtle chrome highlight -->
    <linearGradient id="chrome" x1="0" y1="0" x2="1" y2="0">
      <stop offset="0%" stop-color="rgba(255,255,255,0.00)"/>
      <stop offset="45%" stop-color="rgba(255,255,255,0.14)"/>
      <stop offset="55%" stop-color="rgba(255,255,255,0.06)"/>
      <stop offset="100%" stop-color="rgba(255,255,255,0.00)"/>
    </linearGradient>

    <!-- Soft glow -->
    <filter id="glow" x="-35%" y="-35%" width="170%" height="170%">
      <feGaussianBlur stdDeviation="7" result="blur"/>
      <feColorMatrix in="blur" type="matrix"
        values="1 0 0 0 0
                0 1 0 0 0
                0 0 1 0 0
                0 0 0 0.55 0"/>
      <feMerge>
        <feMergeNode/>
        <feMergeNode in="SourceGraphic"/>
      </feMerge>
    </filter>

    <!-- Slight shadow for readability -->
    <filter id="shadow" x="-30%" y="-30%" width="160%" height="160%">
      <feDropShadow dx="0" dy="10" stdDeviation="16" flood-color="rgba(0,0,0,0.55)"/>
    </filter>

    <!-- Subtle grid pattern -->
    <pattern id="grid" width="64" height="64" patternUnits="userSpaceOnUse">
      <path d="M64 0H0V64" fill="none" stroke="rgba(255,255,255,0.05)" stroke-width="1"/>
    </pattern>
  </defs>

  <!-- Base -->
  <rect width="1200" height="630" fill="url(#bg)"/>
  <rect width="1200" height="630" fill="url(#grid)" opacity="0.55"/>

  <!-- Gold atmosphere -->
  <circle cx="290" cy="150" r="290" fill="rgba(200,162,74,0.14)"/>
  <circle cx="980" cy="520" r="360" fill="rgba(200,162,74,0.10)"/>
  <ellipse cx="820" cy="120" rx="520" ry="140" fill="rgba(255,255,255,0.05)"/>

  <!-- Diagonal chrome streak -->
  <g opacity="0.9" filter="url(#shadow)">
    <path d="M-120 120 L980 -40 L1220 40 L120 200 Z" fill="url(#chrome)" opacity="0.65"/>
  </g>

  <!-- Shield / Mark -->
  <g transform="translate(120,132)">
    <!-- Outer -->
    <path
      d="M160 12
         C222 44 276 52 322 66
         V232
         C322 316 252 380 160 448
         C70 380 -2 316 -2 232
         V66
         C44 52 98 44 160 12 Z"
      fill="none"
      stroke="url(#gold)"
      stroke-width="16"
      filter="url(#glow)"
      opacity="0.95"
    />
    <!-- Inner -->
    <path
      d="M160 44
         C208 72 246 80 276 92
         V226
         C276 288 222 334 160 378
         C98 334 44 288 44 226
         V92
         C74 80 112 72 160 44 Z"
      fill="#0b0b0b"
      stroke="url(#gold)"
      stroke-width="7"
      opacity="0.95"
    />

    <!-- IWS -->
    <text
      x="160" y="210"
      text-anchor="middle"
      font-family="ui-sans-serif, system-ui, -apple-system, Segoe UI, Roboto, Arial"
      font-size="86"
      font-weight="900"
      letter-spacing="6"
      fill="url(#gold)"
      filter="url(#shadow)"
    >IWS</text>
  </g>

  <!-- Main Title -->
  <g filter="url(#shadow)">
    <text x="520" y="260"
      font-family="ui-sans-serif, system-ui, -apple-system, Segoe UI, Roboto, Arial"
      font-size="64"
      font-weight="900"
      fill="#ffffff"
      letter-spacing="0.5">
      Infinite Wealth Solutions
    </text>

    <text x="520" y="325"
      font-family="ui-sans-serif, system-ui, -apple-system, Segoe UI, Roboto, Arial"
      font-size="40"
      font-weight="900"
      fill="url(#gold)"
      letter-spacing="2">
      AI
    </text>
  </g>

  <!-- CTA Pill -->
  <g filter="url(#shadow)">
    <rect x="520" y="372" width="560" height="86" rx="22" fill="rgba(255,255,255,0.06)" />
    <rect x="520" y="372" width="560" height="86" rx="22" fill="none" stroke="rgba(200,162,74,0.55)" stroke-width="2" />
    <rect x="520" y="372" width="560" height="86" rx="22" fill="none" stroke="url(#gold)" stroke-width="3" opacity="0.35"/>
    <text x="800" y="427"
      text-anchor="middle"
      font-family="ui-sans-serif, system-ui, -apple-system, Segoe UI, Roboto, Arial"
      font-size="34"
      font-weight="900"
      fill="#ffffff"
      letter-spacing="0.6">
      Try Our AI Phone Agent
    </text>
  </g>

  <!-- Accent line -->
  <rect x="520" y="488" width="520" height="4" rx="2" fill="url(#gold)" opacity="0.6"/>
</svg>